<mxfile host="app.diagrams.net" modified="2023-02-24T08:37:41.548Z" agent="5.0 (Windows)" etag="ZSihD2SfJQ_wVedYGflH" version="18.1.3" type="github">
  <diagram id="C5RBs43oDa-KdzZeNtuy" name="Page-1">
    <mxGraphModel dx="797" dy="627" grid="1" gridSize="10" guides="1" tooltips="1" connect="1" arrows="1" fold="1" page="1" pageScale="1" pageWidth="3300" pageHeight="4681" math="0" shadow="0">
      <root>
        <mxCell id="WIyWlLk6GJQsqaUBKTNV-0" />
        <mxCell id="WIyWlLk6GJQsqaUBKTNV-1" parent="WIyWlLk6GJQsqaUBKTNV-0" />
        <mxCell id="7E32GhYmtQupcfhVes-2-53" style="edgeStyle=orthogonalEdgeStyle;rounded=0;orthogonalLoop=1;jettySize=auto;html=1;exitX=0.5;exitY=1;exitDx=0;exitDy=0;entryX=0.5;entryY=0;entryDx=0;entryDy=0;" edge="1" parent="WIyWlLk6GJQsqaUBKTNV-1" source="7E32GhYmtQupcfhVes-2-48" target="7E32GhYmtQupcfhVes-2-8">
          <mxGeometry relative="1" as="geometry" />
        </mxCell>
        <mxCell id="7E32GhYmtQupcfhVes-2-48" value="" style="whiteSpace=wrap;html=1;rounded=0;fillColor=none;dashed=1;" vertex="1" parent="WIyWlLk6GJQsqaUBKTNV-1">
          <mxGeometry x="360" y="520" width="120" height="190" as="geometry" />
        </mxCell>
        <mxCell id="7E32GhYmtQupcfhVes-2-4" style="edgeStyle=orthogonalEdgeStyle;rounded=0;orthogonalLoop=1;jettySize=auto;html=1;exitX=0.5;exitY=1;exitDx=0;exitDy=0;" edge="1" parent="WIyWlLk6GJQsqaUBKTNV-1" source="7E32GhYmtQupcfhVes-2-3">
          <mxGeometry relative="1" as="geometry">
            <mxPoint x="340" y="190" as="targetPoint" />
          </mxGeometry>
        </mxCell>
        <mxCell id="7E32GhYmtQupcfhVes-2-3" value="基于改进的Unet模型的遥感影像语义分割研究" style="rounded=0;whiteSpace=wrap;html=1;" vertex="1" parent="WIyWlLk6GJQsqaUBKTNV-1">
          <mxGeometry x="200" y="80" width="280" height="50" as="geometry" />
        </mxCell>
        <mxCell id="7E32GhYmtQupcfhVes-2-7" style="edgeStyle=orthogonalEdgeStyle;rounded=0;orthogonalLoop=1;jettySize=auto;html=1;exitX=0.5;exitY=1;exitDx=0;exitDy=0;entryX=0.5;entryY=0;entryDx=0;entryDy=0;" edge="1" parent="WIyWlLk6GJQsqaUBKTNV-1" source="7E32GhYmtQupcfhVes-2-5" target="7E32GhYmtQupcfhVes-2-6">
          <mxGeometry relative="1" as="geometry" />
        </mxCell>
        <mxCell id="7E32GhYmtQupcfhVes-2-49" value="" style="edgeStyle=orthogonalEdgeStyle;rounded=0;orthogonalLoop=1;jettySize=auto;html=1;" edge="1" parent="WIyWlLk6GJQsqaUBKTNV-1" source="7E32GhYmtQupcfhVes-2-5" target="7E32GhYmtQupcfhVes-2-48">
          <mxGeometry relative="1" as="geometry" />
        </mxCell>
        <mxCell id="7E32GhYmtQupcfhVes-2-5" value="数据收集与预处理" style="rounded=0;whiteSpace=wrap;html=1;" vertex="1" parent="WIyWlLk6GJQsqaUBKTNV-1">
          <mxGeometry x="280" y="190" width="120" height="60" as="geometry" />
        </mxCell>
        <mxCell id="7E32GhYmtQupcfhVes-2-47" style="edgeStyle=orthogonalEdgeStyle;rounded=0;orthogonalLoop=1;jettySize=auto;html=1;exitX=0.5;exitY=1;exitDx=0;exitDy=0;" edge="1" parent="WIyWlLk6GJQsqaUBKTNV-1" source="7E32GhYmtQupcfhVes-2-6" target="7E32GhYmtQupcfhVes-2-36">
          <mxGeometry relative="1" as="geometry" />
        </mxCell>
        <mxCell id="7E32GhYmtQupcfhVes-2-6" value="公开数据集（WHU航空影像数据集）" style="rounded=0;whiteSpace=wrap;html=1;" vertex="1" parent="WIyWlLk6GJQsqaUBKTNV-1">
          <mxGeometry x="200" y="520" width="120" height="60" as="geometry" />
        </mxCell>
        <mxCell id="7E32GhYmtQupcfhVes-2-58" style="edgeStyle=orthogonalEdgeStyle;rounded=0;orthogonalLoop=1;jettySize=auto;html=1;exitX=0.5;exitY=1;exitDx=0;exitDy=0;" edge="1" parent="WIyWlLk6GJQsqaUBKTNV-1" source="7E32GhYmtQupcfhVes-2-8">
          <mxGeometry relative="1" as="geometry">
            <mxPoint x="340" y="880" as="targetPoint" />
          </mxGeometry>
        </mxCell>
        <mxCell id="7E32GhYmtQupcfhVes-2-8" value="徐州市遥感影像数据集" style="rounded=0;whiteSpace=wrap;html=1;" vertex="1" parent="WIyWlLk6GJQsqaUBKTNV-1">
          <mxGeometry x="360" y="770" width="120" height="60" as="geometry" />
        </mxCell>
        <mxCell id="7E32GhYmtQupcfhVes-2-30" style="edgeStyle=orthogonalEdgeStyle;rounded=0;orthogonalLoop=1;jettySize=auto;html=1;exitX=0.5;exitY=1;exitDx=0;exitDy=0;entryX=0.5;entryY=0;entryDx=0;entryDy=0;" edge="1" parent="WIyWlLk6GJQsqaUBKTNV-1" source="7E32GhYmtQupcfhVes-2-10" target="7E32GhYmtQupcfhVes-2-31">
          <mxGeometry relative="1" as="geometry">
            <mxPoint x="330" y="1210" as="targetPoint" />
          </mxGeometry>
        </mxCell>
        <mxCell id="7E32GhYmtQupcfhVes-2-10" value="改进的Unet语义分割模型" style="rounded=0;whiteSpace=wrap;html=1;" vertex="1" parent="WIyWlLk6GJQsqaUBKTNV-1">
          <mxGeometry x="280" y="1190" width="120" height="60" as="geometry" />
        </mxCell>
        <mxCell id="7E32GhYmtQupcfhVes-2-23" style="edgeStyle=orthogonalEdgeStyle;rounded=0;orthogonalLoop=1;jettySize=auto;html=1;exitX=0.5;exitY=1;exitDx=0;exitDy=0;" edge="1" parent="WIyWlLk6GJQsqaUBKTNV-1" source="7E32GhYmtQupcfhVes-2-12" target="7E32GhYmtQupcfhVes-2-14">
          <mxGeometry relative="1" as="geometry" />
        </mxCell>
        <mxCell id="7E32GhYmtQupcfhVes-2-12" value="参数调整" style="rounded=0;whiteSpace=wrap;html=1;" vertex="1" parent="WIyWlLk6GJQsqaUBKTNV-1">
          <mxGeometry x="280" y="990" width="120" height="60" as="geometry" />
        </mxCell>
        <mxCell id="7E32GhYmtQupcfhVes-2-29" style="edgeStyle=orthogonalEdgeStyle;rounded=0;orthogonalLoop=1;jettySize=auto;html=1;exitX=0.5;exitY=1;exitDx=0;exitDy=0;entryX=0.5;entryY=0;entryDx=0;entryDy=0;" edge="1" parent="WIyWlLk6GJQsqaUBKTNV-1" source="7E32GhYmtQupcfhVes-2-14" target="7E32GhYmtQupcfhVes-2-10">
          <mxGeometry relative="1" as="geometry" />
        </mxCell>
        <mxCell id="7E32GhYmtQupcfhVes-2-14" value="模型训练" style="rounded=0;whiteSpace=wrap;html=1;" vertex="1" parent="WIyWlLk6GJQsqaUBKTNV-1">
          <mxGeometry x="280" y="1080" width="120" height="60" as="geometry" />
        </mxCell>
        <mxCell id="7E32GhYmtQupcfhVes-2-27" value="数据增强" style="rounded=0;whiteSpace=wrap;html=1;" vertex="1" parent="WIyWlLk6GJQsqaUBKTNV-1">
          <mxGeometry x="380" y="535" width="80" height="30" as="geometry" />
        </mxCell>
        <mxCell id="7E32GhYmtQupcfhVes-2-31" value="精度评价与" style="whiteSpace=wrap;html=1;rounded=0;" vertex="1" parent="WIyWlLk6GJQsqaUBKTNV-1">
          <mxGeometry x="280" y="1310" width="120" height="60" as="geometry" />
        </mxCell>
        <mxCell id="7E32GhYmtQupcfhVes-2-44" value="" style="edgeStyle=orthogonalEdgeStyle;rounded=0;orthogonalLoop=1;jettySize=auto;html=1;" edge="1" parent="WIyWlLk6GJQsqaUBKTNV-1" source="7E32GhYmtQupcfhVes-2-36" target="7E32GhYmtQupcfhVes-2-43">
          <mxGeometry relative="1" as="geometry" />
        </mxCell>
        <mxCell id="7E32GhYmtQupcfhVes-2-36" value="模型训练" style="rounded=0;whiteSpace=wrap;html=1;fillColor=none;" vertex="1" parent="WIyWlLk6GJQsqaUBKTNV-1">
          <mxGeometry x="200" y="650" width="120" height="60" as="geometry" />
        </mxCell>
        <mxCell id="7E32GhYmtQupcfhVes-2-40" value="&lt;div&gt;目标矢量化&lt;/div&gt;" style="whiteSpace=wrap;html=1;rounded=0;" vertex="1" parent="WIyWlLk6GJQsqaUBKTNV-1">
          <mxGeometry x="380" y="665" width="80" height="30" as="geometry" />
        </mxCell>
        <mxCell id="7E32GhYmtQupcfhVes-2-57" style="edgeStyle=orthogonalEdgeStyle;rounded=0;orthogonalLoop=1;jettySize=auto;html=1;exitX=0.5;exitY=1;exitDx=0;exitDy=0;entryX=0.5;entryY=0;entryDx=0;entryDy=0;" edge="1" parent="WIyWlLk6GJQsqaUBKTNV-1" source="7E32GhYmtQupcfhVes-2-43" target="7E32GhYmtQupcfhVes-2-54">
          <mxGeometry relative="1" as="geometry" />
        </mxCell>
        <mxCell id="7E32GhYmtQupcfhVes-2-43" value="预训练参数" style="whiteSpace=wrap;html=1;fillColor=none;rounded=0;" vertex="1" parent="WIyWlLk6GJQsqaUBKTNV-1">
          <mxGeometry x="200" y="770" width="120" height="60" as="geometry" />
        </mxCell>
        <mxCell id="7E32GhYmtQupcfhVes-2-51" value="&lt;br&gt;&lt;div&gt;划分数据集&lt;br&gt;&lt;br&gt;&lt;/div&gt;" style="whiteSpace=wrap;html=1;rounded=0;" vertex="1" parent="WIyWlLk6GJQsqaUBKTNV-1">
          <mxGeometry x="380" y="580" width="80" height="30" as="geometry" />
        </mxCell>
        <mxCell id="7E32GhYmtQupcfhVes-2-52" value="影像预处理" style="whiteSpace=wrap;html=1;rounded=0;" vertex="1" parent="WIyWlLk6GJQsqaUBKTNV-1">
          <mxGeometry x="380" y="620" width="80" height="30" as="geometry" />
        </mxCell>
        <mxCell id="7E32GhYmtQupcfhVes-2-59" style="edgeStyle=orthogonalEdgeStyle;rounded=0;orthogonalLoop=1;jettySize=auto;html=1;exitX=0.5;exitY=1;exitDx=0;exitDy=0;entryX=0.5;entryY=0;entryDx=0;entryDy=0;" edge="1" parent="WIyWlLk6GJQsqaUBKTNV-1" source="7E32GhYmtQupcfhVes-2-54" target="7E32GhYmtQupcfhVes-2-12">
          <mxGeometry relative="1" as="geometry" />
        </mxCell>
        <mxCell id="7E32GhYmtQupcfhVes-2-54" value="改进的Unet语义分割模型" style="rounded=0;whiteSpace=wrap;html=1;" vertex="1" parent="WIyWlLk6GJQsqaUBKTNV-1">
          <mxGeometry x="280" y="880" width="120" height="60" as="geometry" />
        </mxCell>
      </root>
    </mxGraphModel>
  </diagram>
</mxfile>
